HIERARCHY
ROOT Hips
{
  OFFSET 0 0 0
  CHANNELS 6 Xposition Yposition Zposition Zrotation Yrotation Xrotation
  JOINT LeftThigh
  {
    OFFSET 8.409438 0 -5.917753
    CHANNELS 3 Zrotation Yrotation Xrotation
    JOINT LeftLeg
    {
      OFFSET 0 0 -42.358652
      CHANNELS 3 Zrotation Yrotation Xrotation
      JOINT LeftFoot
      {
        OFFSET 0 0 -39.357303
        CHANNELS 3 Zrotation Yrotation Xrotation
      }
    }
  }
  JOINT RightThigh
  {
    OFFSET -8.409438 0 -5.917753
    CHANNELS 3 Zrotation Yrotation Xrotation
    JOINT RightLeg
    {
      OFFSET 0 0 -42.358652
      CHANNELS 3 Zrotation Yrotation Xrotation
      JOINT RightFoot
      {
        OFFSET 0 0 -39.357303
        CHANNELS 3 Zrotation Yrotation Xrotation
      }
    }
  }
  JOINT SpineLow
  {
    OFFSET 0 0 4.719101
    CHANNELS 3 Zrotation Yrotation Xrotation
    JOINT SpineMid
    {
      OFFSET 0 0 12.899191
      CHANNELS 3 Zrotation Yrotation Xrotation
      JOINT Chest
      {
        OFFSET 0 0 12.899191
        CHANNELS 3 Zrotation Yrotation Xrotation
        JOINT LeftShoulder
        {
          OFFSET 7.550562 1.41573 9.438202
          CHANNELS 3 Zrotation Yrotation Xrotation
          JOINT LeftArm
          {
            OFFSET 9.155056 0 4.247191
            CHANNELS 3 Zrotation Yrotation Xrotation
            JOINT LeftForearm
            {
              OFFSET 0 0 25.771955
              CHANNELS 3 Zrotation Yrotation Xrotation
              JOINT LeftHand
              {
                OFFSET 0 0 25.197169
                CHANNELS 3 Zrotation Yrotation Xrotation
              }
            }
          }
        }
        JOINT RightShoulder
        {
          OFFSET -7.550562 1.41573 9.438202
          CHANNELS 3 Zrotation Yrotation Xrotation
          JOINT RightArm
          {
            OFFSET -9.155056 0 4.247191
            CHANNELS 3 Zrotation Yrotation Xrotation
            JOINT RightForearm
            {
              OFFSET 0 0 -25.771955
              CHANNELS 3 Zrotation Yrotation Xrotation
              JOINT RightHand
              {
                OFFSET 0 0 -25.197169
                CHANNELS 3 Zrotation Yrotation Xrotation
              }
            }
          }
        }
        JOINT Neck
        {
          OFFSET 0 0 15.101124
          CHANNELS 3 Zrotation Yrotation Xrotation
          JOINT Head
          {
            OFFSET 0 0 11.325843
            CHANNELS 3 Zrotation Yrotation Xrotation
            End Site
            {
              OFFSET 0 0 14.157303
            }
          }
        }
      }
    }
  }
}
MOTION
Frames: 10
Frame Time: 0.0
0.0  89.887642  0.0  2.537554  39.624454  -84.962583  9.450904  -47.042438  -12.710275  7.293128  45.27308  51.151052  -0.521633  -2.819661  -1.156552  -28.093687  -2.318412  -52.85942  1.653635  17.729152  52.559098  12.168282  -2.804742  0.344451  -1.128243  -0.708616  -0.0512  -3.083251  -1.938834  -0.106882  -3.083251  -1.938833  -0.106882  -1.204452  21.235762  11.499556  117.541318  42.813025  -146.562001  -14.269656  -13.006847  78.228426  75.266316  -0.382865  35.93571  -8.638902  5.985831  21.408734  15.017857  61.868534  -9.005232  -11.67369  -12.309492  -85.395827  93.046055  23.466404  -6.139353  -17.782015  5.416167  1.729856  -13.342021  4.015883  1.455969  
0.0  89.887642  0.0  2.231076  39.101293  -85.132884  10.570069  -47.235395  -13.270725  6.685384  45.568235  50.882465  -0.339049  -2.712844  -1.093764  -28.020362  -2.62716  -52.821209  1.494708  17.644026  52.404109  12.139206  -2.779307  0.356644  -1.072116  -0.72754  -0.073673  -2.929118  -1.991473  -0.169125  -2.929118  -1.991473  -0.169125  -1.336641  21.126717  11.517332  117.58563  42.55644  -146.835844  -13.639701  -12.038995  79.270203  76.164716  0.653825  34.758374  -8.771071  5.891139  21.454253  15.299312  62.012081  -9.092775  -12.048923  -12.426238  -84.990836  92.870934  23.593361  -6.298878  -17.83523  5.443677  1.796732  -13.382484  4.03446  1.507422  
0.0  89.887642  0.0  2.020345  38.750488  -85.166282  11.49698  -47.190649  -13.763913  6.219322  45.594549  50.700435  -0.3796  -2.687133  -1.104032  -28.142388  -2.737458  -52.979479  1.142862  17.584126  52.275792  12.303741  -2.839526  0.428579  -1.053637  -0.748108  -0.108054  -2.877511  -2.049135  -0.262772  -2.877511  -2.049135  -0.262772  -1.315263  21.074323  11.544093  117.641444  42.319372  -147.074974  -13.624201  -11.947547  79.334941  76.259669  0.888682  34.744837  -8.681728  5.894574  21.531357  15.526614  62.022078  -9.229199  -12.16101  -12.524227  -84.802948  92.848313  23.676411  -6.28757  -17.838247  5.471738  1.854845  -13.385253  4.053826  1.551861  
0.0  89.887642  0.0  1.773182  38.366097  -85.306873  12.320223  -47.219079  -14.161505  5.597283  45.703781  50.363344  -0.271558  -2.564453  -1.051551  -28.232622  -2.852555  -53.085191  0.863845  17.427728  52.231064  12.779156  -2.832131  0.548117  -1.023142  -0.786226  -0.124084  -2.793522  -2.153873  -0.305933  -2.793523  -2.153873  -0.305933  -1.527688  21.166054  11.496126  117.836068  42.145933  -147.213754  -13.437888  -11.858439  79.525324  76.413655  1.344807  34.633128  -9.044978  5.951915  21.353471  16.400342  62.115022  -8.937421  -12.376563  -12.54171  -84.569475  92.800183  23.84303  -6.417352  -17.873676  5.560079  1.854875  -13.411741  4.120059  1.554784  
0.0  89.887642  0.0  1.637554  38.232462  -85.392456  12.637679  -47.232997  -14.353993  5.364654  45.790291  50.288058  -0.316089  -2.550819  -1.078084  -28.581665  -2.96812  -53.168151  0.801921  17.182909  52.226789  12.742023  -2.860404  0.52877  -1.011814  -0.799307  -0.126671  -2.762427  -2.189682  -0.312833  -2.762427  -2.189681  -0.312833  -1.667035  21.15653  11.465826  117.986198  42.044297  -147.326271  -13.256833  -11.816896  79.497593  76.562843  1.440434  34.87448  -9.114378  5.910115  21.258274  16.708609  62.087726  -8.886646  -12.521984  -12.500738  -84.441498  92.828772  23.942464  -6.436826  -17.988402  5.520929  1.839248  -13.497605  4.09083  1.542982  
0.0  89.887642  0.0  1.496531  38.165583  -85.52057  12.802898  -47.215364  -14.511702  4.973763  45.853449  50.028349  -0.360466  -2.484642  -1.055936  -28.998596  -3.276562  -53.213637  0.833699  17.002009  52.204002  12.164148  -2.677417  0.423435  -1.001364  -0.807723  -0.120496  -2.734035  -2.212379  -0.295952  -2.734035  -2.212379  -0.295952  -2.000526  21.157625  11.378393  117.97714  41.967728  -147.336524  -13.074136  -11.93606  79.41628  76.818839  1.600021  35.023377  -9.711895  5.804606  20.918704  17.679352  62.201454  -8.341868  -12.608136  -12.424146  -84.432373  92.821504  24.058696  -6.515821  -18.128161  5.465396  1.811211  -13.602132  4.04961  1.5216  
0.0  89.887642  0.0  1.405692  38.23148  -85.565181  12.910369  -47.21678  -14.705052  4.514826  46.078874  49.769353  -0.280802  -2.43658  -1.064488  -29.503296  -3.533499  -53.295435  0.772135  17.036467  52.114213  11.749139  -2.575273  0.563738  -0.995627  -0.811813  -0.115254  -2.718514  -2.223316  -0.281645  -2.718514  -2.223316  -0.281644  -2.28548  21.15761  11.290307  118.044922  41.955107  -147.485264  -13.025533  -12.009132  79.379364  77.03798  1.453789  35.380493  -9.930584  5.718685  20.714534  18.128756  62.212609  -8.004807  -12.75875  -12.302324  -84.414013  92.822367  24.121514  -6.525923  -18.328086  5.353374  1.754254  -13.751545  3.966709  1.477352  
0.0  89.887642  0.0  1.276773  38.197821  -85.624255  13.088326  -47.197077  -14.900833  3.842933  46.350205  49.306698  -0.069667  -2.308888  -1.034781  -30.134255  -3.881902  -53.507049  1.159566  16.683032  52.230591  10.970763  -2.598217  0.795142  -0.995568  -0.817386  -0.115547  -2.718328  -2.238559  -0.282219  -2.718328  -2.238559  -0.282219  -2.481514  21.15299  11.203272  117.729434  41.964218  -147.59103  -13.291059  -12.319947  79.083445  77.174307  1.370243  35.635517  -10.430009  5.618375  20.350292  19.157896  62.343223  -7.177876  -12.688642  -12.218905  -84.626415  92.79426  24.148648  -6.493465  -18.437951  5.248458  1.70959  -13.833583  3.889016  1.44167  
0.0  89.887642  0.0  1.181969  38.179832  -85.562721  13.241554  -47.162773  -15.144853  3.274952  46.700472  48.892397  0.122149  -2.227534  -1.030811  -30.473831  -4.114183  -53.677709  0.991325  16.684634  52.23228  10.446014  -2.5669  0.976506  -0.987751  -0.829769  -0.12737  -2.696518  -2.272851  -0.314304  -2.696518  -2.272851  -0.314304  -2.684382  21.182632  11.120134  117.867186  41.981507  -147.734054  -13.393858  -12.390455  79.215293  77.16079  1.415693  35.681924  -10.653461  5.615144  20.033204  20.033795  62.377098  -6.320476  -12.670472  -12.111856  -84.797166  92.739282  24.137016  -6.42841  -18.585941  5.135327  1.643069  -13.944028  3.805747  1.389628  
0.0  89.887642  0.0  1.077881  38.107459  -85.47888  13.410117  -47.109583  -15.400521  2.651806  47.047024  48.363167  0.34154  -2.111448  -0.943133  -30.780293  -4.356656  -53.854303  0.730442  16.716067  52.400231  10.076618  -2.398834  1.01634  -1.066623  -0.829505  -0.194518  -2.909871  -2.275427  -0.495167  -2.909871  -2.275427  -0.495167  -2.288466  21.134194  11.386342  117.424469  42.095402  -147.745581  -13.90268  -12.87125  78.944086  76.904981  1.583138  35.525134  -10.63494  5.597736  19.880565  21.551658  62.528464  -4.88179  -12.364063  -12.103237  -85.232216  92.659118  24.098293  -6.329087  -18.371185  5.083376  1.767618  -13.78417  3.763482  1.479671  
